<svg width="949" height="830" viewBox="0 0 949 830" fill="none" xmlns="http://www.w3.org/2000/svg">
<rect width="949" height="830" fill="#E5EAEC"/>
<rect x="437" y="318" width="512" height="512" fill="url(#paint0_linear_1_299)"/>
<path d="M786.314 772.082C776.953 772.082 769.22 764.563 769.22 755.215C769.22 745.867 776.953 738.551 786.314 738.551C795.675 738.551 803.408 745.867 803.408 755.215C803.408 764.563 795.675 772.082 786.314 772.082ZM599.093 772.082C589.732 772.082 582 764.563 582 755.215C582 745.867 589.732 738.551 599.093 738.551C608.454 738.551 615.984 745.867 615.984 755.215C615.984 764.563 608.454 772.082 599.093 772.082ZM792.418 670.268L826.403 611.741C828.234 608.286 827.014 604.018 823.758 602.189C820.298 600.157 816.025 601.376 814.6 604.831L779.802 663.969C752.533 651.572 723.025 645.069 692.5 645.272C661.365 645.272 631.45 651.978 605.605 663.765L571.214 604.628C569.382 601.173 565.109 599.954 561.65 601.986C558.19 603.815 557.173 608.083 559.004 611.538L592.785 670.065C534.788 701.768 494.901 760.498 489 830H896C890.302 760.702 850.62 701.971 792.418 670.268Z" fill="white"/>
<path d="M627.222 422H758.778C760.958 422 763.05 422.857 764.592 424.383C766.134 425.909 767 427.978 767 430.136V462.682C767 464.84 766.134 466.909 764.592 468.435C763.05 469.961 760.958 470.818 758.778 470.818H627.222C625.042 470.818 622.95 469.961 621.408 468.435C619.866 466.909 619 464.84 619 462.682V430.136C619 427.978 619.866 425.909 621.408 424.383C622.95 422.857 625.042 422 627.222 422ZM627.222 487.091H758.778C760.958 487.091 763.05 487.948 764.592 489.474C766.134 491 767 493.069 767 495.227V527.773C767 529.931 766.134 532 764.592 533.526C763.05 535.052 760.958 535.909 758.778 535.909H627.222C625.042 535.909 622.95 535.052 621.408 533.526C619.866 532 619 529.931 619 527.773V495.227C619 493.069 619.866 491 621.408 489.474C622.95 487.948 625.042 487.091 627.222 487.091ZM627.222 552.182H758.778C760.958 552.182 763.05 553.039 764.592 554.565C766.134 556.091 767 558.16 767 560.318V592.864C767 595.022 766.134 597.091 764.592 598.617C763.05 600.143 760.958 601 758.778 601H627.222C625.042 601 622.95 600.143 621.408 598.617C619.866 597.091 619 595.022 619 592.864V560.318C619 558.16 619.866 556.091 621.408 554.565C622.95 553.039 625.042 552.182 627.222 552.182ZM668.333 454.545H676.556V438.273H668.333V454.545ZM668.333 519.636H676.556V503.364H668.333V519.636ZM668.333 584.727H676.556V568.455H668.333V584.727ZM635.444 438.273V454.545H651.889V438.273H635.444ZM635.444 503.364V519.636H651.889V503.364H635.444ZM635.444 568.455V584.727H651.889V568.455H635.444Z" fill="white"/>
<circle cx="256" cy="256" r="256" fill="url(#paint1_linear_1_299)"/>
<mask id="mask0_1_299" style="mask-type:alpha" maskUnits="userSpaceOnUse" x="0" y="0" width="512" height="512">
<circle cx="256" cy="256" r="256" fill="url(#paint2_linear_1_299)"/>
</mask>
<g mask="url(#mask0_1_299)">
<path d="M349.314 459.082C339.953 459.082 332.22 451.563 332.22 442.215C332.22 432.867 339.953 425.551 349.314 425.551C358.675 425.551 366.408 432.867 366.408 442.215C366.408 451.563 358.675 459.082 349.314 459.082ZM162.093 459.082C152.732 459.082 145 451.563 145 442.215C145 432.867 152.732 425.551 162.093 425.551C171.454 425.551 178.984 432.867 178.984 442.215C178.984 451.563 171.454 459.082 162.093 459.082ZM355.418 357.268L389.403 298.741C391.234 295.286 390.014 291.018 386.758 289.189C383.298 287.157 379.025 288.376 377.6 291.831L342.802 350.969C315.533 338.572 286.025 332.069 255.5 332.272C224.365 332.272 194.45 338.978 168.605 350.765L134.214 291.628C132.382 288.173 128.109 286.954 124.65 288.986C121.19 290.815 120.173 295.083 122.004 298.538L155.785 357.065C97.7875 388.768 57.9015 447.498 52 517H459C453.302 447.702 413.62 388.971 355.418 357.268Z" fill="white"/>
</g>
<path d="M190.222 77H321.778C323.958 77 326.05 77.8572 327.592 79.3831C329.134 80.9089 330 82.9785 330 85.1364V117.682C330 119.84 329.134 121.909 327.592 123.435C326.05 124.961 323.958 125.818 321.778 125.818H190.222C188.042 125.818 185.95 124.961 184.408 123.435C182.866 121.909 182 119.84 182 117.682V85.1364C182 82.9785 182.866 80.9089 184.408 79.3831C185.95 77.8572 188.042 77 190.222 77ZM190.222 142.091H321.778C323.958 142.091 326.05 142.948 327.592 144.474C329.134 146 330 148.069 330 150.227V182.773C330 184.931 329.134 187 327.592 188.526C326.05 190.052 323.958 190.909 321.778 190.909H190.222C188.042 190.909 185.95 190.052 184.408 188.526C182.866 187 182 184.931 182 182.773V150.227C182 148.069 182.866 146 184.408 144.474C185.95 142.948 188.042 142.091 190.222 142.091ZM190.222 207.182H321.778C323.958 207.182 326.05 208.039 327.592 209.565C329.134 211.091 330 213.16 330 215.318V247.864C330 250.022 329.134 252.091 327.592 253.617C326.05 255.143 323.958 256 321.778 256H190.222C188.042 256 185.95 255.143 184.408 253.617C182.866 252.091 182 250.022 182 247.864V215.318C182 213.16 182.866 211.091 184.408 209.565C185.95 208.039 188.042 207.182 190.222 207.182ZM231.333 109.545H239.556V93.2727H231.333V109.545ZM231.333 174.636H239.556V158.364H231.333V174.636ZM231.333 239.727H239.556V223.455H231.333V239.727ZM198.444 93.2727V109.545H214.889V93.2727H198.444ZM198.444 158.364V174.636H214.889V158.364H198.444ZM198.444 223.455V239.727H214.889V223.455H198.444Z" fill="white"/>
<defs>
<linearGradient id="paint0_linear_1_299" x1="693" y1="318" x2="693" y2="830" gradientUnits="userSpaceOnUse">
<stop stop-color="#9FEE1F"/>
<stop offset="1" stop-color="#20A3ED"/>
</linearGradient>
<linearGradient id="paint1_linear_1_299" x1="256" y1="0" x2="256" y2="512" gradientUnits="userSpaceOnUse">
<stop stop-color="#9FEE1F"/>
<stop offset="1" stop-color="#20A3ED"/>
</linearGradient>
<linearGradient id="paint2_linear_1_299" x1="256" y1="0" x2="256" y2="512" gradientUnits="userSpaceOnUse">
<stop stop-color="#98E21E"/>
<stop offset="1" stop-color="#00A3FF"/>
</linearGradient>
</defs>
</svg>
